<svg width="25" height="25" viewBox="0 0 25 25" fill="none" xmlns="http://www.w3.org/2000/svg">
<g clip-path="url(#clip0_9_16)">
<path d="M9.601 24.191V16.211H7.127V12.544H9.601V10.964C9.601 6.87901 11.449 4.98601 15.459 4.98601C15.86 4.98601 16.414 5.02801 16.927 5.08901C17.3112 5.12855 17.6924 5.19369 18.068 5.28401V8.60901C17.8509 8.58875 17.633 8.57675 17.415 8.57301C17.1707 8.56667 16.9264 8.56367 16.682 8.56401C15.975 8.56401 15.423 8.66001 15.007 8.87301C14.7273 9.01332 14.4922 9.22869 14.328 9.49501C14.07 9.91501 13.954 10.49 13.954 11.247V12.544H17.873L17.487 14.647L17.2 16.211H13.954V24.456C19.896 23.738 24.5 18.679 24.5 12.544C24.5 5.91701 19.127 0.544006 12.5 0.544006C5.873 0.544006 0.5 5.91701 0.5 12.544C0.5 18.172 4.374 22.894 9.601 24.191Z" fill="white"/>
</g>
<defs>
<clipPath id="clip0_9_16">
<rect width="24" height="24" fill="white" transform="translate(0.5 0.5)"/>
</clipPath>
</defs>
</svg>
