<svg width="25" height="25" viewBox="0 0 25 25" fill="none" xmlns="http://www.w3.org/2000/svg">
<g clip-path="url(#clip0_9_14)">
<path d="M12.5 0.796997C5.87 0.796997 0.5 6.17 0.5 12.797C0.5 18.1 3.938 22.597 8.705 24.182C9.305 24.295 9.525 23.924 9.525 23.605C9.525 23.32 9.515 22.565 9.51 21.565C6.172 22.289 5.468 19.955 5.468 19.955C4.922 18.57 4.133 18.2 4.133 18.2C3.046 17.456 4.217 17.471 4.217 17.471C5.422 17.555 6.055 18.707 6.055 18.707C7.125 20.542 8.864 20.012 9.55 19.705C9.658 18.929 9.967 18.4 10.31 18.1C7.645 17.8 4.844 16.768 4.844 12.17C4.844 10.86 5.309 9.79 6.079 8.95C5.944 8.647 5.539 7.427 6.184 5.774C6.184 5.774 7.189 5.452 9.484 7.004C10.444 6.737 11.464 6.605 12.484 6.599C13.504 6.605 14.524 6.737 15.484 7.004C17.764 5.452 18.769 5.774 18.769 5.774C19.414 7.427 19.009 8.647 18.889 8.95C19.654 9.79 20.119 10.86 20.119 12.17C20.119 16.78 17.314 17.795 14.644 18.09C15.064 18.45 15.454 19.186 15.454 20.31C15.454 21.916 15.439 23.206 15.439 23.596C15.439 23.911 15.649 24.286 16.264 24.166C21.065 22.592 24.5 18.092 24.5 12.797C24.5 6.17 19.127 0.796997 12.5 0.796997Z" fill="white"/>
</g>
<defs>
<clipPath id="clip0_9_14">
<rect width="24" height="24" fill="white" transform="translate(0.5 0.5)"/>
</clipPath>
</defs>
</svg>
