<svg width="25" height="25" viewBox="0 0 25 25" fill="none" xmlns="http://www.w3.org/2000/svg">
<g clip-path="url(#clip0_9_12)">
<path d="M12.5 0.5C9.24 0.5 8.833 0.515 7.553 0.572C6.275 0.632 5.405 0.833 4.64 1.13C3.851 1.436 3.181 1.847 2.514 2.514C1.847 3.181 1.435 3.85 1.13 4.64C0.833 5.405 0.631 6.275 0.572 7.553C0.512 8.833 0.5 9.24 0.5 12.5C0.5 15.76 0.515 16.167 0.572 17.447C0.632 18.724 0.833 19.595 1.13 20.36C1.436 21.148 1.847 21.819 2.514 22.486C3.181 23.152 3.85 23.565 4.64 23.87C5.406 24.166 6.276 24.369 7.553 24.428C8.833 24.488 9.24 24.5 12.5 24.5C15.76 24.5 16.167 24.485 17.447 24.428C18.724 24.368 19.595 24.166 20.36 23.87C21.148 23.564 21.819 23.152 22.486 22.486C23.152 21.819 23.565 21.151 23.87 20.36C24.166 19.595 24.369 18.724 24.428 17.447C24.488 16.167 24.5 15.76 24.5 12.5C24.5 9.24 24.485 8.833 24.428 7.553C24.368 6.276 24.166 5.404 23.87 4.64C23.564 3.851 23.152 3.181 22.486 2.514C21.819 1.847 21.151 1.435 20.36 1.13C19.595 0.833 18.724 0.631 17.447 0.572C16.167 0.512 15.76 0.5 12.5 0.5ZM12.5 2.66C15.703 2.66 16.085 2.676 17.35 2.731C18.52 2.786 19.155 2.98 19.577 3.146C20.139 3.363 20.537 3.623 20.959 4.042C21.378 4.462 21.638 4.861 21.855 5.423C22.019 5.845 22.215 6.48 22.268 7.65C22.325 8.916 22.338 9.296 22.338 12.5C22.338 15.704 22.323 16.085 22.264 17.35C22.203 18.52 22.008 19.155 21.843 19.577C21.619 20.139 21.364 20.537 20.944 20.959C20.525 21.378 20.12 21.638 19.564 21.855C19.144 22.019 18.499 22.215 17.329 22.268C16.055 22.325 15.68 22.338 12.47 22.338C9.259 22.338 8.884 22.323 7.611 22.264C6.44 22.203 5.795 22.008 5.375 21.843C4.806 21.619 4.415 21.364 3.996 20.944C3.575 20.525 3.306 20.12 3.096 19.564C2.931 19.144 2.737 18.499 2.676 17.329C2.631 16.069 2.615 15.68 2.615 12.485C2.615 9.289 2.631 8.899 2.676 7.624C2.737 6.454 2.931 5.81 3.096 5.39C3.306 4.82 3.575 4.43 3.996 4.009C4.415 3.59 4.806 3.32 5.375 3.111C5.795 2.945 6.426 2.75 7.596 2.69C8.871 2.645 9.246 2.63 12.455 2.63L12.5 2.66ZM12.5 6.338C9.095 6.338 6.338 9.098 6.338 12.5C6.338 15.905 9.098 18.662 12.5 18.662C15.905 18.662 18.662 15.902 18.662 12.5C18.662 9.095 15.902 6.338 12.5 6.338ZM12.5 16.5C10.29 16.5 8.5 14.71 8.5 12.5C8.5 10.29 10.29 8.5 12.5 8.5C14.71 8.5 16.5 10.29 16.5 12.5C16.5 14.71 14.71 16.5 12.5 16.5ZM20.346 6.095C20.346 6.89 19.7 7.535 18.906 7.535C18.111 7.535 17.466 6.889 17.466 6.095C17.466 5.301 18.112 4.656 18.906 4.656C19.699 4.655 20.346 5.301 20.346 6.095Z" fill="white"/>
</g>
<defs>
<clipPath id="clip0_9_12">
<rect width="24" height="24" fill="white" transform="translate(0.5 0.5)"/>
</clipPath>
</defs>
</svg>
