<svg width="24" height="24" viewBox="0 0 24 24" fill="none" xmlns="http://www.w3.org/2000/svg">
<path d="M10.64 1.13004L2.49002 9.28004C2.13203 9.63679 1.84799 10.0607 1.65418 10.5275C1.46036 10.9942 1.3606 11.4946 1.3606 12C1.3606 12.5054 1.46036 13.0059 1.65418 13.4726C1.84799 13.9394 2.13203 14.3633 2.49002 14.72L10.64 22.87C10.9968 23.228 11.4207 23.5121 11.8874 23.7059C12.3542 23.8997 12.8546 23.9995 13.36 23.9995C13.8654 23.9995 14.3658 23.8997 14.8326 23.7059C15.2994 23.5121 15.7233 23.228 16.08 22.87L18.8 20.16L16.08 17.44L13.36 20.16L5.20002 12L13.36 3.84004L18.8 9.28004L13.36 14.72L16.08 17.44L21.5 12C21.858 11.6433 22.1421 11.2194 22.3359 10.7526C22.5297 10.2859 22.6295 9.78544 22.6295 9.28004C22.6295 8.77465 22.5297 8.27422 22.3359 7.80746C22.1421 7.3407 21.858 6.91679 21.5 6.56004L16.06 1.13004C15.7041 0.77236 15.2811 0.488524 14.8151 0.294846C14.3492 0.101168 13.8496 0.00146484 13.345 0.00146484C12.8404 0.00146484 12.3408 0.101168 11.8749 0.294846C11.409 0.488524 10.9859 0.77236 10.63 1.13004H10.64Z" fill="black"/>
</svg>
