<svg width="25" height="25" viewBox="0 0 25 25" fill="none" xmlns="http://www.w3.org/2000/svg">
<g clip-path="url(#clip0_9_8)">
<path d="M11.14 1.62998L2.99002 9.77998C2.63203 10.1367 2.34799 10.5606 2.15418 11.0274C1.96036 11.4942 1.8606 11.9946 1.8606 12.5C1.8606 13.0054 1.96036 13.5058 2.15418 13.9726C2.34799 14.4393 2.63203 14.8632 2.99002 15.22L11.14 23.37C11.4968 23.728 11.9207 24.012 12.3874 24.2058C12.8542 24.3996 13.3546 24.4994 13.86 24.4994C14.3654 24.4994 14.8659 24.3996 15.3326 24.2058C15.7994 24.012 16.2233 23.728 16.58 23.37L19.3 20.66L16.58 17.94L13.86 20.66L5.70002 12.5L13.86 4.33998L19.3 9.77998L13.86 15.22L16.58 17.94L22.0001 12.5C22.358 12.1432 22.642 11.7193 22.8359 11.2526C23.0297 10.7858 23.1295 10.2854 23.1295 9.77998C23.1295 9.27459 23.0297 8.77415 22.8359 8.30739C22.642 7.84064 22.358 7.41673 22.0001 7.05998L16.56 1.62998C16.2041 1.2723 15.7811 0.988464 15.3151 0.794786C14.8492 0.601107 14.3496 0.501404 13.845 0.501404C13.3405 0.501404 12.8408 0.601107 12.3749 0.794786C11.909 0.988464 11.4859 1.2723 11.13 1.62998H11.14Z" fill="white"/>
</g>
<defs>
<clipPath id="clip0_9_8">
<rect width="24" height="24" fill="white" transform="translate(0.5 0.5)"/>
</clipPath>
</defs>
</svg>
